<?xml version="1.0" encoding="iso-8859-1"?>
<!-- Generator: Adobe Illustrator 16.0.0, SVG Export Plug-In . SVG Version: 6.00 Build 0)  -->
<!DOCTYPE svg PUBLIC "-//W3C//DTD SVG 1.1//EN" "http://www.w3.org/Graphics/SVG/1.1/DTD/svg11.dtd">
<svg version="1.1" id="Capa_1" xmlns="http://www.w3.org/2000/svg" xmlns:xlink="http://www.w3.org/1999/xlink" x="0px" y="0px"
	 width="47px" height="47px" viewBox="0 0 47 47" style="enable-background:new 0 0 47 47;" xml:space="preserve">
<g>
	<g>
		<path d="M23.498,10.141c-2.094,0-3.796,1.709-3.796,3.807v3.706h7.596v-3.706C27.298,11.851,25.593,10.141,23.498,10.141z"/>
		<path d="M3.431,0v23.928C3.431,36.67,23.5,47,23.5,47s20.069-10.33,20.069-23.072V0H3.431z M34.351,30.148
			c0,1.571-1.286,2.856-2.855,2.856h-15.99c-1.57,0-2.855-1.285-2.855-2.856v-9.64c0-1.569,1.286-2.855,2.855-2.855h0.387v-3.706
			c0-4.198,3.413-7.613,7.606-7.613c4.195,0,7.609,3.415,7.609,7.613v3.706h0.388c1.57,0,2.855,1.286,2.855,2.855V30.148z"/>
	</g>
</g>
<g>
</g>
<g>
</g>
<g>
</g>
<g>
</g>
<g>
</g>
<g>
</g>
<g>
</g>
<g>
</g>
<g>
</g>
<g>
</g>
<g>
</g>
<g>
</g>
<g>
</g>
<g>
</g>
<g>
</g>
</svg>
